PathFileType	4	(X/Y/Z)	36_2_rein_72_p1_0-317_filt_butterworth.trc
DataRate	CameraRate	NumFrames	NumMarkers	Units	OrigDataRate	OrigDataStartFrame	OrigNumFrames
43.0	43.0	6	27	m	43.0	198	317
Frame#	Time	RHip			RKnee			RAnkle			RBigToe			RSmallToe			RHeel			LHip			LKnee			LAnkle			LBigToe			LSmallToe			LHeel			Neck			Head			Nose			RShoulder			RElbow			RWrist			RThumb			RIndex			RPinky			LShoulder			LElbow			LWrist			LThumb			LIndex			LPinky			
		X1	Y1	Z1	X2	Y2	Z2	X3	Y3	Z3	X4	Y4	Z4	X5	Y5	Z5	X6	Y6	Z6	X7	Y7	Z7	X8	Y8	Z8	X9	Y9	Z9	X10	Y10	Z10	X11	Y11	Z11	X12	Y12	Z12	X13	Y13	Z13	X14	Y14	Z14	X15	Y15	Z15	X16	Y16	Z16	X17	Y17	Z17	X18	Y18	Z18	X19	Y19	Z19	X20	Y20	Z20	X21	Y21	Z21	X22	Y22	Z22	X23	Y23	Z23	X24	Y24	Z24	X25	Y25	Z25	X26	Y26	Z26	X27	Y27	Z27	
198	4.604651162790698	0.3304952429783633	0.8959718441930966	0.6074488508561477	0.33927906501715016	0.46052099493729726	0.6057038797579469	0.3828727535532894	0.015891398508632304	0.7104365418452957	0.3174779481353061	0.018091619517446367	0.4983594585830642	0.3982616018369225	0.007875823633418197	0.5275877270745762	0.3688706599557882	-0.06832718718171321	0.8103678294604557	0.17346866867158287	0.8559053546618168	0.7279895969526671	0.17279986254742258	0.44713949117120033	0.6533111014288988	0.19095902327694286	-0.006295530667976099	0.7387694902241692	0.18425624880865776	0.003916910354908237	0.5225755433208623	0.13108761838962765	-0.028332204140859733	0.5977036068050747	0.21328734131054397	-0.0950710259280586	0.8113398597199973	0.14795422460381422	1.486537605426859	0.6808015809193233	-0.03471294323848313	1.7090664450418067	0.6361612205052999	-0.010009392307415882	1.5225852189113316	0.6238083312924427	0.24294235573996042	1.442315255459604	0.5689457229904338	0.0012965604426544187	1.3900102174756908	0.3151591541061919	-0.2936668838432617	1.354905350105744	0.2794400005763379	-0.42542650621252287	1.3315989143863411	0.2490566495220389	-0.453061089531994	1.3699430430115789	0.26588737725148887	-0.4021023978144642	1.395313624630094	0.23519089218468323	0.11973329712611729	1.4139364941317187	0.7785144187746255	-0.018656140144736315	1.3558367430094496	0.32089823794815353	-0.27483458812804473	1.3460477718138182	0.3230928858456342	-0.3850519517725063	1.3274287254440087	0.2852531914796628	-0.38282753008884873	1.3824393171474814	0.22127597100866553	-0.3982489121838776	1.3938020529790967	0.2791215001075873	
199	4.627906976744186	0.33108503729026995	0.8959083397934757	0.6096200676109083	0.3394991046729532	0.46210336606495217	0.6048215196546571	0.3830535822801217	0.016357544541155303	0.7099625850972939	0.31769544102650815	0.017177177356089715	0.4986708018916367	0.3994002845715944	0.007678486898363077	0.52808478589749	0.36883419058431094	-0.06809162903031882	0.810340266663547	0.1736904389325019	0.8565139187714271	0.7283968817820741	0.17257909842233946	0.44727283617136615	0.6528370938018513	0.19088369778349126	-0.006015887963852676	0.7386497202825314	0.18429944227707995	0.0038715382360283296	0.5226305164638904	0.1307697598047211	-0.029674621361707586	0.5982101319299982	0.21342172000565718	-0.09552247022558272	0.8116834520099185	0.14907858555980358	1.4867617610702364	0.6792762975894308	-0.03351346730252373	1.7080428974740827	0.6361634551699982	-0.008035350317017716	1.5234323504749312	0.619376405371773	0.24370279401820852	1.4422922611540576	0.5701290598036179	0.004945264617756695	1.3895954624677387	0.31698526888214174	-0.29153691997399056	1.3545988871162635	0.280657604001638	-0.41875580095845266	1.3328009251105548	0.24297246910741727	-0.4489775807641352	1.370464667684422	0.2625101786357186	-0.39980449576099936	1.395075027104955	0.2358077570298547	0.12052856177414145	1.4124510085548319	0.7753619522480429	-0.0169776565576156	1.3559642907175644	0.3180143489914741	-0.2683374629781116	1.3468314436572242	0.31642242724395997	-0.38355020990161104	1.326631828534625	0.2864113534273342	-0.3804784437953881	1.3823258742272784	0.22356045297368962	-0.3994791787692774	1.3919989383910876	0.2903691542551486	
200	4.651162790697675	0.33161577950184173	0.8960631264985234	0.6115183039256059	0.33965769889651226	0.46387875424748115	0.6041801344134412	0.3833074897771461	0.016645315271461167	0.7096868128348334	0.3179943690178945	0.01613892401632904	0.4990010478304821	0.39987072033565757	0.007552205202001436	0.528465684744368	0.36878646013754285	-0.06775207511582325	0.8102722423813836	0.17391080940444087	0.8572246608406564	0.7285869789370151	0.17239966113035202	0.44727215451055724	0.6525519397901729	0.1907734169368646	-0.005624775847058602	0.7384958289117166	0.18458540514729702	0.0031954219120258615	0.5237527655596905	0.13072006435644726	-0.030242180752067076	0.5980163237881164	0.21352252903489594	-0.09578921729179388	0.8120224309338822	0.1500914971245732	1.4869668925563042	0.6780020051480069	-0.03266403691226037	1.7069185373752254	0.6377302190666434	-0.006456743494971618	1.5241629806525685	0.6153364383817758	0.24382081231464095	1.4426270549192775	0.5702450682952858	0.00838274589011031	1.38889907945784	0.3210517689800615	-0.2894908316224356	1.354367600939977	0.2810495155901794	-0.4129137364461568	1.3333015871750051	0.23861875848027042	-0.4438681665327323	1.371637715374392	0.2575077410761284	-0.397574010924217	1.395584802132641	0.2361018324253581	0.12102040687824839	1.4115946680392517	0.7731134923309609	-0.016278210451337843	1.355436975416301	0.3162669141139035	-0.2624696582029637	1.347581669054254	0.3094244867467041	-0.3809379258720047	1.3274668074662719	0.28477871560616186	-0.3766282256023109	1.3831937509154455	0.22225849708542353	-0.39881562667481446	1.3912870981812668	0.2957942859693302	
201	4.674418604651163	0.332059985470333	0.8963975858984057	0.613190649125097	0.3397994333624251	0.4657828660941588	0.6036129093834142	0.3835558613967416	0.016529602090224943	0.709988090973383	0.31830750700098975	0.015146375188576297	0.4992628550196728	0.3994211243041359	0.007535176722473655	0.5285230577695456	0.36868084086898634	-0.0673329890565772	0.8101226464474304	0.17415282458492964	0.8579324374193584	0.7286950593494136	0.1723442474143823	0.44725596965563985	0.6524786798508175	0.19063337115486087	-0.005111886648946462	0.7383143254554384	0.18506013363314272	0.00201293162522978	0.5257349650320005	0.13110561735152937	-0.029674151254667124	0.5966517863281561	0.21353366905811724	-0.09577336971178459	0.8121321743200572	0.15085254902661327	1.4871650563559407	0.6766793746339776	-0.03201303311110857	1.7059232322179607	0.6395097289634382	-0.00494978873247629	1.5247130739828074	0.6118991155934431	0.2435878411813842	1.4432238816776528	0.5698438854026184	0.011330678961924884	1.3878549057086391	0.32626067437023965	-0.28723024261893937	1.3545290318284307	0.2799803318963144	-0.4081326846081038	1.3328418767155015	0.23626990058177613	-0.43822982029776214	1.3731671389661182	0.2512586508507018	-0.39533772182012883	1.3965107189275714	0.23626644130712923	0.12126629864308358	1.4110735952507054	0.7718025003541374	-0.016585387700351905	1.3541674392364917	0.31694669057236674	-0.2572713609136481	1.3483014475681365	0.30261504082502344	-0.3776580324690721	1.3294943191967845	0.28084078058643636	-0.3717712960361057	1.3847330579433812	0.21743659513159222	-0.3959315546037137	1.3918238349271501	0.29446689693797945	
202	4.697674418604652	0.332369071137813	0.8969187544795885	0.6145138271903963	0.33994939382087064	0.46775399078713364	0.6030700518975991	0.38380901064261397	0.016033332672443765	0.7109263796197284	0.3184975291577027	0.014589506593006125	0.49926916115060277	0.3982710683415789	0.007695207424505829	0.528082999097571	0.36855773244815276	-0.06679978186970523	0.8099064698539825	0.17429479670058512	0.8586050505407231	0.728474370571243	0.17236375598154421	0.4473639728715427	0.6524762104463908	0.19048869808231716	-0.004506805167059452	0.7381355940984478	0.18562764910065235	0.0005850373459448943	0.5281317601988486	0.13188609227431325	-0.028127125261089833	0.5942348181185454	0.21348437465228054	-0.09557372581134922	0.8120777314535879	0.15164514239573873	1.4874002924551475	0.6751137305617746	-0.03158827436532696	1.705045808703439	0.6400855048735122	-0.0035269442358027295	1.5251107589593746	0.6094478316679295	0.24342020197600517	1.443932872301512	0.5696048840141752	0.01384904956364701	1.3865277799531814	0.33094498988297	-0.28461900542424623	1.3549575783396735	0.2776738361683658	-0.40455966949445055	1.3315225674046436	0.23565768432967032	-0.43238590074850614	1.3746158555291783	0.24442891016011098	-0.39319122966453923	1.3973512438190532	0.23652963572731986	0.12143868768408214	1.4105897942997108	0.7707655004449109	-0.01789740903514855	1.3522351199028504	0.32116127748280765	-0.25362598924024515	1.3487664474678085	0.2979202477119932	-0.3746430155521503	1.3315356358734942	0.2767815585934368	-0.3671148547166622	1.386315168939487	0.21120166091324283	-0.39257878974648186	1.3929063998929092	0.2897156878390026	
203	4.72093023255814	0.33253138216571876	0.8976593704410779	0.615417610656467	0.34010121519237524	0.46966177238479967	0.6025781202833331	0.38410686664407406	0.015379638939800572	0.7121690156512018	0.31847736275715405	0.014784419485788028	0.49890913855847435	0.3968836547190796	0.007985465115586288	0.5273183674207106	0.3684719514118495	-0.0660629432112938	0.8096635627609902	0.1742640622266228	0.8592508158745543	0.7279231305371521	0.17238407215882373	0.44756155985508905	0.6524650611742366	0.19036478026651493	-0.003915008382433263	0.737990393426919	0.1862262784412038	-0.0009006371229549615	0.5306211210369461	0.13298726055290902	-0.02578181559924822	0.5909934558767808	0.21343449493980943	-0.09535595961748429	0.812034722169879	0.15277395754006254	1.4877272453293262	0.6730524092751926	-0.03145521779873949	1.7043472082998288	0.639671811044569	-0.00259689380681426	1.525312103137301	0.6086375994020898	0.24343264561214656	1.4446597781213255	0.5696984677637634	0.015703941857530407	1.3852201149722247	0.3336825691666331	-0.28194019056362785	1.35544463968907	0.27465237375713486	-0.4020111922573685	1.329960041373265	0.23576624220024925	-0.42657926379053634	1.3757569426233365	0.23770528618947687	-0.3913808018192247	1.3978063704547814	0.23717920496356076	0.12157084882238568	1.4100658288388415	0.7699638141561627	-0.018890563542745608	1.3501772968500745	0.3263291807243642	-0.252591339347839	1.3487391595254914	0.29692239067236925	-0.3725922563650869	1.3327935401583235	0.27398319010917704	-0.3629367172021981	1.38769048025744	0.20464160569787374	-0.3896886732702749	1.3941106929270577	0.2837947331073011	
